<?xml version="1.0" encoding="UTF-8"?>
<!--
  Digital Audio Workstation — Main View (HD Application Screenshot)
  Size: 1440 × 900  |  Theme: Black / Neon  |  State: Playing
-->
<svg xmlns="http://www.w3.org/2000/svg"
     width="1440" height="900" viewBox="0 0 1440 900"
     font-family="'Courier New', 'Lucida Console', monospace">

  <defs>
    <!-- Transport bar gradient -->
    <linearGradient id="transportGrad" x1="0" y1="0" x2="0" y2="1">
      <stop offset="0%" stop-color="#181818"/>
      <stop offset="100%" stop-color="#101010"/>
    </linearGradient>

    <!-- Green glow filter (play, time, level-ok) -->
    <filter id="glowGreen" x="-30%" y="-30%" width="160%" height="160%">
      <feGaussianBlur stdDeviation="3" result="blur"/>
      <feMerge><feMergeNode in="blur"/><feMergeNode in="SourceGraphic"/></feMerge>
    </filter>

    <!-- Red glow filter (record) -->
    <filter id="glowRed" x="-30%" y="-30%" width="160%" height="160%">
      <feGaussianBlur stdDeviation="3" result="blur"/>
      <feMerge><feMergeNode in="blur"/><feMergeNode in="SourceGraphic"/></feMerge>
    </filter>

    <!-- Purple glow filter -->
    <filter id="glowPurple" x="-30%" y="-30%" width="160%" height="160%">
      <feGaussianBlur stdDeviation="3" result="blur"/>
      <feMerge><feMergeNode in="blur"/><feMergeNode in="SourceGraphic"/></feMerge>
    </filter>

    <!-- Clip paths for waveform rows -->
    <clipPath id="clipTrack1"><rect x="322" y="96" width="1112" height="88"/></clipPath>
    <clipPath id="clipTrack2"><rect x="322" y="184" width="1112" height="88"/></clipPath>
    <clipPath id="clipTrack3"><rect x="322" y="272" width="1112" height="88"/></clipPath>
    <clipPath id="clipTrack4"><rect x="322" y="360" width="1112" height="88"/></clipPath>
    <clipPath id="clipTrack5"><rect x="322" y="448" width="1112" height="88"/></clipPath>

    <!-- Level meter gradient (green→orange→red) -->
    <linearGradient id="meterGrad" x1="0" y1="1" x2="0" y2="0">
      <stop offset="0%"   stop-color="#1b5e20"/>
      <stop offset="60%"  stop-color="#00e676"/>
      <stop offset="80%"  stop-color="#ff9100"/>
      <stop offset="100%" stop-color="#ff1744"/>
    </linearGradient>

    <!-- Spectrum gradient (purple→cyan) -->
    <linearGradient id="spectrumGrad" x1="0" y1="1" x2="0" y2="0">
      <stop offset="0%"   stop-color="#4a148c"/>
      <stop offset="50%"  stop-color="#7c4dff"/>
      <stop offset="100%" stop-color="#00e5ff"/>
    </linearGradient>

    <!-- Waveform clip region for oscilloscope -->
    <clipPath id="clipOsc"><rect x="14" y="678" width="264" height="159"/></clipPath>
    <clipPath id="clipSpec"><rect x="300" y="678" width="264" height="159"/></clipPath>
    <clipPath id="clipLevel"><rect x="586" y="678" width="264" height="159"/></clipPath>
    <clipPath id="clipLoudness"><rect x="872" y="678" width="264" height="159"/></clipPath>
    <clipPath id="clipCorr"><rect x="1158" y="678" width="276" height="159"/></clipPath>

    <!-- Drop shadow for tiles -->
    <filter id="tileShadow" x="-5%" y="-5%" width="110%" height="115%">
      <feDropShadow dx="0" dy="2" stdDeviation="4" flood-color="#000000" flood-opacity="0.6"/>
    </filter>
  </defs>

  <!-- ═══════════════════════════════════════════════════════
       ROOT BACKGROUND
       ═══════════════════════════════════════════════════════ -->
  <rect width="1440" height="900" fill="#000000"/>

  <!-- ═══════════════════════════════════════════════════════
       TRANSPORT BAR  (y=0, h=52)
       ═══════════════════════════════════════════════════════ -->
  <rect x="0" y="0" width="1440" height="52" fill="url(#transportGrad)"/>

  <!-- Play button (green, PLAYING state active) -->
  <rect x="16" y="8" width="78" height="36" rx="6" fill="#1b3a1b" stroke="#00e676" stroke-width="1.5"
        filter="url(#glowGreen)"/>
  <text x="55" y="31" fill="#00e676" font-size="13" font-weight="bold"
        font-family="'Segoe UI',Arial,sans-serif" text-anchor="middle">▶  Play</text>

  <!-- Pause button (cyan) -->
  <rect x="100" y="8" width="78" height="36" rx="6" fill="#2e2e2e" stroke="#006064" stroke-width="1.5"/>
  <text x="139" y="31" fill="#00e5ff" font-size="13" font-weight="bold"
        font-family="'Segoe UI',Arial,sans-serif" text-anchor="middle">⏸  Pause</text>

  <!-- Stop button (orange) -->
  <rect x="184" y="8" width="78" height="36" rx="6" fill="#2e2e2e" stroke="#e65100" stroke-width="1.5"/>
  <text x="223" y="31" fill="#ff9100" font-size="13" font-weight="bold"
        font-family="'Segoe UI',Arial,sans-serif" text-anchor="middle">⏹  Stop</text>

  <!-- Record button (red) -->
  <rect x="268" y="8" width="88" height="36" rx="6" fill="#2e2e2e" stroke="#b71c1c" stroke-width="1.5"/>
  <text x="312" y="31" fill="#ff1744" font-size="13" font-weight="bold"
        font-family="'Segoe UI',Arial,sans-serif" text-anchor="middle">⏺  Record</text>

  <!-- Vertical separator -->
  <line x1="366" y1="10" x2="366" y2="42" stroke="#2a2a2a" stroke-width="1"/>

  <!-- Time display -->
  <text x="390" y="33" fill="#00e676" font-size="18" font-weight="bold"
        font-family="'Courier New','Lucida Console',monospace" filter="url(#glowGreen)">02:14:07.8</text>

  <!-- Vertical separator -->
  <line x1="508" y1="10" x2="508" y2="42" stroke="#2a2a2a" stroke-width="1"/>

  <!-- Metronome icon + Tempo -->
  <text x="524" y="33" fill="#ff9100" font-size="15" font-weight="bold"
        font-family="'Courier New','Lucida Console',monospace">♩ 128.0 BPM</text>

  <!-- Vertical separator -->
  <line x1="658" y1="10" x2="658" y2="42" stroke="#2a2a2a" stroke-width="1"/>

  <!-- Add Audio Track button -->
  <rect x="672" y="8" width="108" height="36" rx="6" fill="#2e2e2e" stroke="#3d3d3d" stroke-width="1"/>
  <text x="726" y="31" fill="#e0e0e0" font-size="13" font-weight="bold"
        font-family="'Segoe UI',Arial,sans-serif" text-anchor="middle">+ Audio Track</text>

  <!-- Add MIDI Track button -->
  <rect x="786" y="8" width="106" height="36" rx="6" fill="#2e2e2e" stroke="#3d3d3d" stroke-width="1"/>
  <text x="839" y="31" fill="#e0e0e0" font-size="13" font-weight="bold"
        font-family="'Segoe UI',Arial,sans-serif" text-anchor="middle">+ MIDI Track</text>

  <!-- Vertical separator -->
  <line x1="902" y1="10" x2="902" y2="42" stroke="#2a2a2a" stroke-width="1"/>

  <!-- Undo button -->
  <rect x="916" y="8" width="72" height="36" rx="6" fill="#2e2e2e" stroke="#3d3d3d" stroke-width="1"/>
  <text x="952" y="31" fill="#e0e0e0" font-size="13" font-weight="bold"
        font-family="'Segoe UI',Arial,sans-serif" text-anchor="middle">↩ Undo</text>

  <!-- Redo button -->
  <rect x="994" y="8" width="72" height="36" rx="6" fill="#2e2e2e" stroke="#3d3d3d" stroke-width="1"/>
  <text x="1030" y="31" fill="#e0e0e0" font-size="13" font-weight="bold"
        font-family="'Segoe UI',Arial,sans-serif" text-anchor="middle">↪ Redo</text>

  <!-- Vertical separator -->
  <line x1="1076" y1="10" x2="1076" y2="42" stroke="#2a2a2a" stroke-width="1"/>

  <!-- Save button (orange) -->
  <rect x="1090" y="8" width="70" height="36" rx="6" fill="#2e2e2e" stroke="#e65100" stroke-width="1"/>
  <text x="1125" y="31" fill="#ff9100" font-size="13" font-weight="bold"
        font-family="'Segoe UI',Arial,sans-serif" text-anchor="middle">💾 Save</text>

  <!-- Plugins button (purple) -->
  <rect x="1166" y="8" width="82" height="36" rx="6" fill="#2e2e2e" stroke="#4a148c" stroke-width="1"/>
  <text x="1207" y="31" fill="#e040fb" font-size="13" font-weight="bold"
        font-family="'Segoe UI',Arial,sans-serif" text-anchor="middle">🔌 Plugins</text>

  <!-- Status: PLAYING (right-aligned, green glow) -->
  <text x="1410" y="33" fill="#00e676" font-size="13" font-weight="bold"
        font-family="'Segoe UI',Arial,sans-serif" text-anchor="end"
        filter="url(#glowGreen)">● PLAYING</text>

  <!-- Transport bar bottom separator -->
  <line x1="0" y1="52" x2="1440" y2="52" stroke="#2a2a2a" stroke-width="1"/>


  <!-- ═══════════════════════════════════════════════════════
       CONTENT AREA  (y=53)
       ═══════════════════════════════════════════════════════ -->

  <!-- ── TRACK LIST PANEL (x=6, y=59, w=310, h=600) ── -->
  <rect x="6" y="59" width="310" height="600" rx="10" fill="#111111"
        stroke="#2a2a2a" stroke-width="1" filter="url(#tileShadow)"/>

  <!-- Panel header: TRACKS (purple) -->
  <text x="22" y="85" fill="#e040fb" font-size="14" font-weight="bold"
        font-family="'Segoe UI',Arial,sans-serif" letter-spacing="2">⊞  TRACKS</text>

  <!-- ──────── Track 1: Drums (Audio, orange accent) ──────── -->
  <rect x="14" y="96" width="294" height="88" rx="6" fill="#1a1a1a" stroke="#2a2a2a" stroke-width="1"/>
  <!-- Track type icon area -->
  <rect x="14" y="96" width="6" height="88" rx="3" fill="#ff9100"/>
  <!-- Track name + type -->
  <text x="30" y="117" fill="#e0e0e0" font-size="13" font-weight="bold"
        font-family="'Segoe UI',Arial,sans-serif">Drums</text>
  <text x="30" y="133" fill="#7c4dff" font-size="11"
        font-family="'Segoe UI',Arial,sans-serif">AUDIO  ·  Stereo</text>
  <!-- Volume slider -->
  <rect x="30" y="140" width="180" height="4" rx="2" fill="#2e2e2e"/>
  <rect x="30" y="140" width="138" height="4" rx="2" fill="#7c4dff"/>
  <circle cx="168" cy="142" r="6" fill="#7c4dff"/>
  <!-- Mini buttons: M S A X -->
  <rect x="222" y="104" width="22" height="18" rx="3" fill="#2e2e2e"/>
  <text x="233" y="117" fill="#ff9100" font-size="10" font-weight="bold"
        font-family="'Segoe UI',Arial,sans-serif" text-anchor="middle">M</text>
  <rect x="248" y="104" width="22" height="18" rx="3" fill="#2e2e2e"/>
  <text x="259" y="117" fill="#00e676" font-size="10" font-weight="bold"
        font-family="'Segoe UI',Arial,sans-serif" text-anchor="middle">S</text>
  <rect x="274" y="104" width="22" height="18" rx="3" fill="#2e2e2e"/>
  <text x="285" y="117" fill="#ff1744" font-size="10" font-weight="bold"
        font-family="'Segoe UI',Arial,sans-serif" text-anchor="middle">A</text>
  <rect x="300" y="104" width="8" height="18" rx="3" fill="#2e2e2e"/>
  <text x="304" y="117" fill="#808080" font-size="10" font-weight="bold"
        font-family="'Segoe UI',Arial,sans-serif" text-anchor="middle">×</text>
  <!-- Level mini-meter bars -->
  <rect x="222" y="130" width="86" height="4" rx="1" fill="#2e2e2e"/>
  <rect x="222" y="130" width="58" height="4" rx="1" fill="#00e676"/>
  <rect x="222" y="138" width="86" height="4" rx="1" fill="#2e2e2e"/>
  <rect x="222" y="138" width="52" height="4" rx="1" fill="#00e676"/>
  <text x="314" y="136" fill="#808080" font-size="9"
        font-family="'Segoe UI',Arial,sans-serif" text-anchor="end">-6 dB</text>

  <!-- ──────── Track 2: Bass (Audio, cyan accent) ──────── -->
  <rect x="14" y="190" width="294" height="88" rx="6" fill="#1a1a1a" stroke="#2a2a2a" stroke-width="1"/>
  <rect x="14" y="190" width="6" height="88" rx="3" fill="#00e5ff"/>
  <text x="30" y="211" fill="#e0e0e0" font-size="13" font-weight="bold"
        font-family="'Segoe UI',Arial,sans-serif">Bass</text>
  <text x="30" y="227" fill="#7c4dff" font-size="11"
        font-family="'Segoe UI',Arial,sans-serif">AUDIO  ·  Mono</text>
  <rect x="30" y="234" width="180" height="4" rx="2" fill="#2e2e2e"/>
  <rect x="30" y="234" width="120" height="4" rx="2" fill="#7c4dff"/>
  <circle cx="150" cy="236" r="6" fill="#7c4dff"/>
  <rect x="222" y="198" width="22" height="18" rx="3" fill="#2e2e2e"/>
  <text x="233" y="211" fill="#ff9100" font-size="10" font-weight="bold"
        font-family="'Segoe UI',Arial,sans-serif" text-anchor="middle">M</text>
  <rect x="248" y="198" width="22" height="18" rx="3" fill="#2e2e2e"/>
  <text x="259" y="211" fill="#00e676" font-size="10" font-weight="bold"
        font-family="'Segoe UI',Arial,sans-serif" text-anchor="middle">S</text>
  <rect x="274" y="198" width="22" height="18" rx="3" fill="#ff1744"/>
  <text x="285" y="211" fill="#ffffff" font-size="10" font-weight="bold"
        font-family="'Segoe UI',Arial,sans-serif" text-anchor="middle">A</text>
  <rect x="300" y="198" width="8" height="18" rx="3" fill="#2e2e2e"/>
  <text x="304" y="211" fill="#808080" font-size="10" font-weight="bold"
        font-family="'Segoe UI',Arial,sans-serif" text-anchor="middle">×</text>
  <rect x="222" y="224" width="86" height="4" rx="1" fill="#2e2e2e"/>
  <rect x="222" y="224" width="48" height="4" rx="1" fill="#00e676"/>
  <rect x="222" y="232" width="86" height="4" rx="1" fill="#2e2e2e"/>
  <text x="314" y="230" fill="#808080" font-size="9"
        font-family="'Segoe UI',Arial,sans-serif" text-anchor="end">-12 dB</text>

  <!-- ──────── Track 3: Lead Synth (MIDI, purple accent) ──────── -->
  <rect x="14" y="284" width="294" height="88" rx="6" fill="#1a1a1a" stroke="#2a2a2a" stroke-width="1"/>
  <rect x="14" y="284" width="6" height="88" rx="3" fill="#e040fb"/>
  <text x="30" y="305" fill="#e0e0e0" font-size="13" font-weight="bold"
        font-family="'Segoe UI',Arial,sans-serif">Lead Synth</text>
  <text x="30" y="321" fill="#7c4dff" font-size="11"
        font-family="'Segoe UI',Arial,sans-serif">MIDI</text>
  <rect x="30" y="328" width="180" height="4" rx="2" fill="#2e2e2e"/>
  <rect x="30" y="328" width="154" height="4" rx="2" fill="#7c4dff"/>
  <circle cx="184" cy="330" r="6" fill="#7c4dff"/>
  <rect x="222" y="292" width="22" height="18" rx="3" fill="#2e2e2e"/>
  <text x="233" y="305" fill="#ff9100" font-size="10" font-weight="bold"
        font-family="'Segoe UI',Arial,sans-serif" text-anchor="middle">M</text>
  <rect x="248" y="292" width="22" height="18" rx="3" fill="#2e2e2e"/>
  <text x="259" y="305" fill="#00e676" font-size="10" font-weight="bold"
        font-family="'Segoe UI',Arial,sans-serif" text-anchor="middle">S</text>
  <rect x="274" y="292" width="22" height="18" rx="3" fill="#2e2e2e"/>
  <text x="285" y="305" fill="#ff1744" font-size="10" font-weight="bold"
        font-family="'Segoe UI',Arial,sans-serif" text-anchor="middle">A</text>
  <rect x="300" y="292" width="8" height="18" rx="3" fill="#2e2e2e"/>
  <text x="304" y="305" fill="#808080" font-size="10" font-weight="bold"
        font-family="'Segoe UI',Arial,sans-serif" text-anchor="middle">×</text>

  <!-- ──────── Track 4: Rhodes Piano (Audio, green accent) ──────── -->
  <rect x="14" y="378" width="294" height="88" rx="6" fill="#1a1a1a" stroke="#2a2a2a" stroke-width="1"/>
  <rect x="14" y="378" width="6" height="88" rx="3" fill="#00e676"/>
  <text x="30" y="399" fill="#e0e0e0" font-size="13" font-weight="bold"
        font-family="'Segoe UI',Arial,sans-serif">Rhodes Piano</text>
  <text x="30" y="415" fill="#7c4dff" font-size="11"
        font-family="'Segoe UI',Arial,sans-serif">AUDIO  ·  Stereo</text>
  <rect x="30" y="422" width="180" height="4" rx="2" fill="#2e2e2e"/>
  <rect x="30" y="422" width="100" height="4" rx="2" fill="#7c4dff"/>
  <circle cx="130" cy="424" r="6" fill="#7c4dff"/>
  <rect x="222" y="386" width="22" height="18" rx="3" fill="#ff9100"/>
  <text x="233" y="399" fill="#0d0d0d" font-size="10" font-weight="bold"
        font-family="'Segoe UI',Arial,sans-serif" text-anchor="middle">M</text>
  <rect x="248" y="386" width="22" height="18" rx="3" fill="#2e2e2e"/>
  <text x="259" y="399" fill="#00e676" font-size="10" font-weight="bold"
        font-family="'Segoe UI',Arial,sans-serif" text-anchor="middle">S</text>
  <rect x="274" y="386" width="22" height="18" rx="3" fill="#2e2e2e"/>
  <text x="285" y="399" fill="#ff1744" font-size="10" font-weight="bold"
        font-family="'Segoe UI',Arial,sans-serif" text-anchor="middle">A</text>
  <rect x="300" y="386" width="8" height="18" rx="3" fill="#2e2e2e"/>
  <text x="304" y="399" fill="#808080" font-size="10" font-weight="bold"
        font-family="'Segoe UI',Arial,sans-serif" text-anchor="middle">×</text>

  <!-- ──────── Track 5: Pad (Audio, purple accent) ──────── -->
  <rect x="14" y="472" width="294" height="88" rx="6" fill="#1a1a1a" stroke="#2a2a2a" stroke-width="1"/>
  <rect x="14" y="472" width="6" height="88" rx="3" fill="#7c4dff"/>
  <text x="30" y="493" fill="#e0e0e0" font-size="13" font-weight="bold"
        font-family="'Segoe UI',Arial,sans-serif">Pad</text>
  <text x="30" y="509" fill="#7c4dff" font-size="11"
        font-family="'Segoe UI',Arial,sans-serif">AUDIO  ·  Stereo</text>
  <rect x="30" y="516" width="180" height="4" rx="2" fill="#2e2e2e"/>
  <rect x="30" y="516" width="80" height="4" rx="2" fill="#7c4dff"/>
  <circle cx="110" cy="518" r="6" fill="#7c4dff"/>
  <rect x="222" y="480" width="22" height="18" rx="3" fill="#2e2e2e"/>
  <text x="233" y="493" fill="#ff9100" font-size="10" font-weight="bold"
        font-family="'Segoe UI',Arial,sans-serif" text-anchor="middle">M</text>
  <rect x="248" y="480" width="22" height="18" rx="3" fill="#00e676"/>
  <text x="259" y="493" fill="#0d0d0d" font-size="10" font-weight="bold"
        font-family="'Segoe UI',Arial,sans-serif" text-anchor="middle">S</text>
  <rect x="274" y="480" width="22" height="18" rx="3" fill="#2e2e2e"/>
  <text x="285" y="493" fill="#ff1744" font-size="10" font-weight="bold"
        font-family="'Segoe UI',Arial,sans-serif" text-anchor="middle">A</text>
  <rect x="300" y="480" width="8" height="18" rx="3" fill="#2e2e2e"/>
  <text x="304" y="493" fill="#808080" font-size="10" font-weight="bold"
        font-family="'Segoe UI',Arial,sans-serif" text-anchor="middle">×</text>


  <!-- ── ARRANGEMENT PANEL (x=322, y=59, w=1112, h=600) ── -->
  <rect x="322" y="59" width="1112" height="600" rx="10" fill="#111111"
        stroke="#2a2a2a" stroke-width="1" filter="url(#tileShadow)"/>

  <!-- Timeline header -->
  <rect x="322" y="59" width="1112" height="30" rx="10" fill="#161616"/>
  <rect x="322" y="79" width="1112" height="10" fill="#161616"/>
  <line x1="322" y1="89" x2="1434" y2="89" stroke="#2a2a2a" stroke-width="1"/>

  <!-- Bar numbers (1–8, evenly spaced across 1112px, bars start at ~139px each) -->
  <!-- bar width = 1112/8 = 139px -->
  <text x="352"  y="80" fill="#808080" font-size="11" font-family="'Courier New',monospace">1</text>
  <text x="491"  y="80" fill="#808080" font-size="11" font-family="'Courier New',monospace">2</text>
  <text x="630"  y="80" fill="#808080" font-size="11" font-family="'Courier New',monospace">3</text>
  <text x="769"  y="80" fill="#808080" font-size="11" font-family="'Courier New',monospace">4</text>
  <text x="908"  y="80" fill="#808080" font-size="11" font-family="'Courier New',monospace">5</text>
  <text x="1047" y="80" fill="#808080" font-size="11" font-family="'Courier New',monospace">6</text>
  <text x="1186" y="80" fill="#808080" font-size="11" font-family="'Courier New',monospace">7</text>
  <text x="1325" y="80" fill="#808080" font-size="11" font-family="'Courier New',monospace">8</text>

  <!-- Bar divider lines -->
  <line x1="486" y1="59" x2="486" y2="659" stroke="#1e1e1e" stroke-width="1"/>
  <line x1="625" y1="59" x2="625" y2="659" stroke="#1e1e1e" stroke-width="1"/>
  <line x1="764" y1="59" x2="764" y2="659" stroke="#1e1e1e" stroke-width="1"/>
  <line x1="903" y1="59" x2="903" y2="659" stroke="#1e1e1e" stroke-width="1"/>
  <line x1="1042" y1="59" x2="1042" y2="659" stroke="#1e1e1e" stroke-width="1"/>
  <line x1="1181" y1="59" x2="1181" y2="659" stroke="#1e1e1e" stroke-width="1"/>
  <line x1="1320" y1="59" x2="1320" y2="659" stroke="#1e1e1e" stroke-width="1"/>

  <!-- Playhead (position ~bar 2.4) -->
  <line x1="664" y1="59" x2="664" y2="659" stroke="#00e676" stroke-width="1.5" stroke-dasharray="none" opacity="0.8"/>
  <polygon points="657,59 671,59 664,70" fill="#00e676" opacity="0.9"/>

  <!-- ── Track row separators in arrangement ── -->
  <line x1="322" y1="184" x2="1434" y2="184" stroke="#1a1a1a" stroke-width="1"/>
  <line x1="322" y1="278" x2="1434" y2="278" stroke="#1a1a1a" stroke-width="1"/>
  <line x1="322" y1="372" x2="1434" y2="372" stroke="#1a1a1a" stroke-width="1"/>
  <line x1="322" y1="466" x2="1434" y2="466" stroke="#1a1a1a" stroke-width="1"/>
  <line x1="322" y1="560" x2="1434" y2="560" stroke="#1a1a1a" stroke-width="1"/>

  <!-- ═══ TRACK 1: Drums — orange waveform clips ═══ -->
  <!-- Clip 1 (bars 1-2): orange waveform block -->
  <rect x="330" y="96" width="270" height="82" rx="4" fill="#1e1000" stroke="#ff9100" stroke-width="1" opacity="0.9"/>
  <text x="340" y="110" fill="#ff9100" font-size="10" font-weight="bold"
        font-family="'Segoe UI',Arial,sans-serif">Drums_01.wav</text>
  <!-- Waveform path (drums = spiky) -->
  <g clip-path="url(#clipTrack1)">
    <polyline points="
      330,140 336,110 342,152 348,114 354,148 360,116 366,138 372,120 378,155 384,108 390,142 396,118 402,150 408,112 414,140 420,122 426,155 432,110 438,145 444,115 450,148 456,118 452,140 460,125 466,152 472,112 478,145 484,118 490,138 496,122 500,140
    " fill="none" stroke="#ff9100" stroke-width="1.5" opacity="0.85"/>
  </g>

  <!-- Clip 2 (bars 3-4): slightly different amplitude -->
  <rect x="608" y="96" width="270" height="82" rx="4" fill="#1e1000" stroke="#ff9100" stroke-width="1" opacity="0.9"/>
  <text x="618" y="110" fill="#ff9100" font-size="10" font-weight="bold"
        font-family="'Segoe UI',Arial,sans-serif">Drums_01.wav</text>
  <g clip-path="url(#clipTrack1)">
    <polyline points="
      608,142 614,112 620,150 626,116 632,145 638,118 644,138 650,122 656,152 662,110 668,144 674,118 680,148 686,114 692,142 698,120 704,154 710,112 716,146 722,118 728,150 734,116 740,142 746,122 752,154 758,112 764,146 770,118 776,140 782,125 788,142
    " fill="none" stroke="#ff9100" stroke-width="1.5" opacity="0.85"/>
  </g>

  <!-- Clip 3 (bars 5-6) -->
  <rect x="886" y="96" width="270" height="82" rx="4" fill="#1e1000" stroke="#ff9100" stroke-width="1" opacity="0.9"/>
  <text x="896" y="110" fill="#ff9100" font-size="10" font-weight="bold"
        font-family="'Segoe UI',Arial,sans-serif">Drums_02.wav</text>
  <g clip-path="url(#clipTrack1)">
    <polyline points="
      886,140 892,108 898,152 904,114 910,146 916,118 922,136 928,120 934,155 940,110 946,144 952,118 958,150 964,112 970,142 976,122 982,154 988,110 994,146 1000,118 1006,148 1012,116 1018,140 1024,124 1030,153 1036,112 1042,146 1048,118 1054,140 1060,125 1066,142 1072,112 1078,148 1084,118 1090,140 1096,122 1102,155 1108,110 1114,144 1120,118 1126,150 1132,112 1138,142 1144,120 1150,154 1156,112
    " fill="none" stroke="#ff9100" stroke-width="1.5" opacity="0.85"/>
  </g>

  <!-- ═══ TRACK 2: Bass — cyan waveform clips ═══ -->
  <!-- One long clip (bars 1–6) -->
  <rect x="330" y="190" width="826" height="82" rx="4" fill="#001a1e" stroke="#00e5ff" stroke-width="1" opacity="0.9"/>
  <text x="340" y="204" fill="#00e5ff" font-size="10" font-weight="bold"
        font-family="'Segoe UI',Arial,sans-serif">Bass_Line_A.wav</text>
  <!-- Bass waveform: smooth sinusoidal -->
  <path d="M330,236 C350,196 370,276 390,236 C410,196 430,276 450,236
           C470,196 490,276 510,236 C530,196 550,276 570,236
           C590,196 610,276 630,236 C650,196 670,276 690,236
           C710,196 730,276 750,236 C770,196 790,276 810,236
           C830,196 850,276 870,236 C890,196 910,276 930,236
           C950,196 970,276 990,236 C1010,196 1030,276 1050,236
           C1070,196 1090,276 1110,236 C1130,196 1150,276 1156,244"
        fill="none" stroke="#00e5ff" stroke-width="1.8" opacity="0.85"/>
  <!-- Fill the bass waveform area softly -->
  <path d="M330,236 C350,196 370,276 390,236 C410,196 430,276 450,236
           C470,196 490,276 510,236 C530,196 550,276 570,236
           C590,196 610,276 630,236 C650,196 670,276 690,236
           C710,196 730,276 750,236 C770,196 790,276 810,236
           C830,196 850,276 870,236 C890,196 910,276 930,236
           C950,196 970,276 990,236 C1010,196 1030,276 1050,236
           C1070,196 1090,276 1110,236 C1130,196 1150,276 1156,244
           L1156,272 L330,272 Z"
        fill="#00e5ff" opacity="0.06"/>

  <!-- ═══ TRACK 3: Lead Synth — MIDI blocks (purple) ═══ -->
  <!-- MIDI block 1 (bars 2-4) -->
  <rect x="486" y="284" width="417" height="82" rx="4" fill="#1a0022" stroke="#e040fb" stroke-width="1" opacity="0.9"/>
  <text x="496" y="298" fill="#e040fb" font-size="10" font-weight="bold"
        font-family="'Segoe UI',Arial,sans-serif">Synth_Lead_01  [MIDI]</text>
  <!-- MIDI note bars (horizontal bars = notes) -->
  <rect x="496" y="306" width="90" height="8"  rx="2" fill="#e040fb" opacity="0.8"/>
  <rect x="596" y="314" width="70" height="8"  rx="2" fill="#e040fb" opacity="0.8"/>
  <rect x="676" y="300" width="110" height="8" rx="2" fill="#e040fb" opacity="0.8"/>
  <rect x="496" y="322" width="55" height="8"  rx="2" fill="#aa00ff" opacity="0.7"/>
  <rect x="560" y="330" width="80" height="8"  rx="2" fill="#aa00ff" opacity="0.7"/>
  <rect x="650" y="338" width="60" height="8"  rx="2" fill="#aa00ff" opacity="0.7"/>
  <rect x="720" y="322" width="75" height="8"  rx="2" fill="#e040fb" opacity="0.8"/>
  <rect x="804" y="310" width="90" height="8"  rx="2" fill="#e040fb" opacity="0.8"/>

  <!-- MIDI block 2 (bars 6-8) -->
  <rect x="1042" y="284" width="386" height="82" rx="4" fill="#1a0022" stroke="#e040fb" stroke-width="1" opacity="0.9"/>
  <text x="1052" y="298" fill="#e040fb" font-size="10" font-weight="bold"
        font-family="'Segoe UI',Arial,sans-serif">Synth_Lead_02  [MIDI]</text>
  <rect x="1052" y="308" width="78" height="8"  rx="2" fill="#e040fb" opacity="0.8"/>
  <rect x="1140" y="316" width="60" height="8"  rx="2" fill="#e040fb" opacity="0.8"/>
  <rect x="1210" y="300" width="95" height="8"  rx="2" fill="#e040fb" opacity="0.8"/>
  <rect x="1052" y="324" width="50" height="8"  rx="2" fill="#aa00ff" opacity="0.7"/>
  <rect x="1112" y="332" width="70" height="8"  rx="2" fill="#aa00ff" opacity="0.7"/>
  <rect x="1192" y="340" width="55" height="8"  rx="2" fill="#aa00ff" opacity="0.7"/>
  <rect x="1256" y="324" width="66" height="8"  rx="2" fill="#e040fb" opacity="0.8"/>
  <rect x="1332" y="312" width="80" height="8"  rx="2" fill="#e040fb" opacity="0.8"/>

  <!-- ═══ TRACK 4: Rhodes Piano — green audio clips ═══ -->
  <!-- Clip (bars 1-4) -->
  <rect x="330" y="378" width="556" height="82" rx="4" fill="#001208" stroke="#00e676" stroke-width="1" opacity="0.9"/>
  <text x="340" y="392" fill="#00e676" font-size="10" font-weight="bold"
        font-family="'Segoe UI',Arial,sans-serif">Rhodes_A.wav</text>
  <!-- Rhodes waveform: moderate sine with some variation -->
  <path d="M330,420 C340,402 350,438 360,420 C370,402 380,438 390,420
           C400,402 410,438 420,420 C430,402 440,438 450,420
           C460,402 470,438 480,424 C490,408 500,436 510,420
           C520,404 530,440 540,422 C550,404 560,438 570,420
           C580,402 590,440 600,420 C610,402 620,438 630,420
           C640,402 650,440 660,422 C670,405 680,438 690,420
           C700,403 710,439 720,421 C730,404 740,438 750,420
           C760,402 770,440 780,422 C790,403 800,438 810,420
           C820,402 830,440 840,422 C850,404 860,438 870,420
           C880,403 886,430 886,430"
        fill="none" stroke="#00e676" stroke-width="1.6" opacity="0.85"/>
  <path d="M330,420 C340,402 350,438 360,420 C370,402 380,438 390,420
           C400,402 410,438 420,420 C430,402 440,438 450,420
           C460,402 470,438 480,424 C490,408 500,436 510,420
           C520,404 530,440 540,422 C550,404 560,438 570,420
           C580,402 590,440 600,420 C610,402 620,438 630,420
           C640,402 650,440 660,422 C670,405 680,438 690,420
           C700,403 710,439 720,421 C730,404 740,438 750,420
           C760,402 770,440 780,422 C790,403 800,438 810,420
           C820,402 830,440 840,422 C850,404 860,438 870,420
           C880,403 886,430 886,430 L886,460 L330,460 Z"
        fill="#00e676" opacity="0.05"/>

  <!-- ═══ TRACK 5: Pad — purple ambient clips ═══ -->
  <!-- Pad clip (bars 1-8, very soft waveform) -->
  <rect x="330" y="472" width="1104" height="82" rx="4" fill="#100018" stroke="#7c4dff" stroke-width="1" opacity="0.9"/>
  <text x="340" y="486" fill="#7c4dff" font-size="10" font-weight="bold"
        font-family="'Segoe UI',Arial,sans-serif">Atmospheric_Pad.wav</text>
  <!-- Very smooth sine = pad/ambient -->
  <path d="M330,515 C380,490 420,540 480,515 C540,490 580,540 640,515
           C700,490 740,540 800,515 C860,490 900,540 960,515
           C1020,490 1060,540 1120,515 C1180,490 1220,540 1280,515
           C1340,490 1380,535 1434,518"
        fill="none" stroke="#7c4dff" stroke-width="2" opacity="0.7"/>
  <path d="M330,515 C380,490 420,540 480,515 C540,490 580,540 640,515
           C700,490 740,540 800,515 C860,490 900,540 960,515
           C1020,490 1060,540 1120,515 C1180,490 1220,540 1280,515
           C1340,490 1380,535 1434,518 L1434,554 L330,554 Z"
        fill="#7c4dff" opacity="0.07"/>

  <!-- Arrangement panel corner rounding fix (overlay bottom) -->
  <rect x="322" y="649" width="1112" height="10" rx="0" fill="#111111"/>
  <rect x="322" y="649" width="1112" height="10" rx="10" fill="none" stroke="#2a2a2a"/>


  <!-- ═══════════════════════════════════════════════════════
       VISUALIZATION TILES ROW  (y=668, h=175)
       ═══════════════════════════════════════════════════════ -->

  <!-- Tile backgrounds (5 tiles) -->
  <!-- tile widths: (1440-12-4*6)/5 = 1404/5 ≈ 280px, last gets remainder -->
  <!-- Tile 1: Oscilloscope/Waveform -->
  <rect x="6"    y="668" width="276" height="175" rx="10" fill="#111111" stroke="#2a2a2a" stroke-width="1" filter="url(#tileShadow)"/>
  <!-- Tile 2: Spectrum Analyzer -->
  <rect x="288"  y="668" width="276" height="175" rx="10" fill="#111111" stroke="#2a2a2a" stroke-width="1" filter="url(#tileShadow)"/>
  <!-- Tile 3: Level Meters (L/R) -->
  <rect x="570"  y="668" width="276" height="175" rx="10" fill="#111111" stroke="#2a2a2a" stroke-width="1" filter="url(#tileShadow)"/>
  <!-- Tile 4: Loudness (LUFS) -->
  <rect x="852"  y="668" width="276" height="175" rx="10" fill="#111111" stroke="#2a2a2a" stroke-width="1" filter="url(#tileShadow)"/>
  <!-- Tile 5: Stereo Correlation -->
  <rect x="1134" y="668" width="300" height="175" rx="10" fill="#111111" stroke="#2a2a2a" stroke-width="1" filter="url(#tileShadow)"/>

  <!-- ── Tile 1: Oscilloscope (cyan header) ── -->
  <text x="18"  y="686" fill="#00e5ff" font-size="11" font-weight="bold"
        font-family="'Segoe UI',Arial,sans-serif" letter-spacing="1">WAVEFORM</text>
  <!-- Oscilloscope waveform -->
  <rect x="14"   y="691" width="264" height="142" rx="4" fill="#0a0a0a"/>
  <line x1="14" y1="762" x2="278" y2="762" stroke="#1a1a1a" stroke-width="1"/>
  <line x1="146" y1="691" x2="146" y2="833" stroke="#1a1a1a" stroke-width="1"/>
  <!-- Waveform (complex audio signal) -->
  <path d="M14,762 C24,740 28,784 36,762 C44,740 48,784 56,762
           C64,725 68,800 76,762 C84,730 88,794 96,762
           C100,750 104,774 112,762 C116,742 120,782 128,762
           C132,745 136,779 144,762 C148,740 152,784 160,762
           C168,720 172,804 180,762 C188,730 192,794 200,762
           C204,748 208,776 216,762 C220,742 224,782 232,762
           C236,748 240,776 248,762 C252,742 256,782 264,762
           C268,746 272,778 278,764"
        fill="none" stroke="#00e5ff" stroke-width="1.5" opacity="0.9"/>
  <!-- Faint fill under waveform -->
  <path d="M14,762 C24,740 28,784 36,762 C44,740 48,784 56,762
           C64,725 68,800 76,762 C84,730 88,794 96,762
           C100,750 104,774 112,762 C116,742 120,782 128,762
           C132,745 136,779 144,762 C148,740 152,784 160,762
           C168,720 172,804 180,762 C188,730 192,794 200,762
           C204,748 208,776 216,762 C220,742 224,782 232,762
           C236,748 240,776 248,762 C252,742 256,782 264,762
           C268,746 272,778 278,764 L278,833 L14,833 Z"
        fill="#00e5ff" opacity="0.04"/>

  <!-- ── Tile 2: Spectrum Analyzer (green header) ── -->
  <text x="300" y="686" fill="#00e676" font-size="11" font-weight="bold"
        font-family="'Segoe UI',Arial,sans-serif" letter-spacing="1">SPECTRUM</text>
  <rect x="296"  y="691" width="264" height="142" rx="4" fill="#0a0a0a"/>
  <!-- Frequency axis labels -->
  <text x="300" y="829" fill="#3d3d3d" font-size="9" font-family="'Courier New',monospace">20</text>
  <text x="340" y="829" fill="#3d3d3d" font-size="9" font-family="'Courier New',monospace">100</text>
  <text x="390" y="829" fill="#3d3d3d" font-size="9" font-family="'Courier New',monospace">500</text>
  <text x="440" y="829" fill="#3d3d3d" font-size="9" font-family="'Courier New',monospace">2k</text>
  <text x="490" y="829" fill="#3d3d3d" font-size="9" font-family="'Courier New',monospace">8k</text>
  <text x="536" y="829" fill="#3d3d3d" font-size="9" font-family="'Courier New',monospace">20k</text>
  <!-- Spectrum bars (FFT-like distribution) -->
  <!-- Low freqs: tallish bars; mid: varied; high: shorter -->
  <rect x="300" y="776" width="5" height="46"  fill="url(#spectrumGrad)" opacity="0.9"/>
  <rect x="306" y="762" width="5" height="60"  fill="url(#spectrumGrad)" opacity="0.9"/>
  <rect x="312" y="748" width="5" height="74"  fill="url(#spectrumGrad)" opacity="0.9"/>
  <rect x="318" y="738" width="5" height="84"  fill="url(#spectrumGrad)" opacity="0.9"/>
  <rect x="324" y="730" width="5" height="92"  fill="url(#spectrumGrad)" opacity="0.9"/>
  <rect x="330" y="720" width="5" height="102" fill="url(#spectrumGrad)" opacity="0.9"/>
  <rect x="336" y="712" width="5" height="110" fill="url(#spectrumGrad)" opacity="0.9"/>
  <rect x="342" y="706" width="5" height="116" fill="url(#spectrumGrad)" opacity="0.9"/>
  <rect x="348" y="700" width="5" height="122" fill="url(#spectrumGrad)" opacity="0.9"/>
  <rect x="354" y="695" width="5" height="127" fill="url(#spectrumGrad)" opacity="0.9"/>
  <rect x="360" y="692" width="5" height="130" fill="url(#spectrumGrad)" opacity="0.9"/>
  <rect x="366" y="697" width="5" height="125" fill="url(#spectrumGrad)" opacity="0.9"/>
  <rect x="372" y="702" width="5" height="120" fill="url(#spectrumGrad)" opacity="0.9"/>
  <rect x="378" y="708" width="5" height="114" fill="url(#spectrumGrad)" opacity="0.9"/>
  <rect x="384" y="714" width="5" height="108" fill="url(#spectrumGrad)" opacity="0.9"/>
  <rect x="390" y="720" width="5" height="102" fill="url(#spectrumGrad)" opacity="0.9"/>
  <rect x="396" y="726" width="5" height="96"  fill="url(#spectrumGrad)" opacity="0.9"/>
  <rect x="402" y="734" width="5" height="88"  fill="url(#spectrumGrad)" opacity="0.9"/>
  <rect x="408" y="740" width="5" height="82"  fill="url(#spectrumGrad)" opacity="0.9"/>
  <rect x="414" y="748" width="5" height="74"  fill="url(#spectrumGrad)" opacity="0.9"/>
  <rect x="420" y="754" width="5" height="68"  fill="url(#spectrumGrad)" opacity="0.9"/>
  <rect x="426" y="760" width="5" height="62"  fill="url(#spectrumGrad)" opacity="0.9"/>
  <rect x="432" y="764" width="5" height="58"  fill="url(#spectrumGrad)" opacity="0.9"/>
  <rect x="438" y="752" width="5" height="70"  fill="url(#spectrumGrad)" opacity="0.9"/>
  <rect x="444" y="748" width="5" height="74"  fill="url(#spectrumGrad)" opacity="0.9"/>
  <rect x="450" y="756" width="5" height="66"  fill="url(#spectrumGrad)" opacity="0.9"/>
  <rect x="456" y="762" width="5" height="60"  fill="url(#spectrumGrad)" opacity="0.9"/>
  <rect x="462" y="770" width="5" height="52"  fill="url(#spectrumGrad)" opacity="0.9"/>
  <rect x="468" y="776" width="5" height="46"  fill="url(#spectrumGrad)" opacity="0.9"/>
  <rect x="474" y="782" width="5" height="40"  fill="url(#spectrumGrad)" opacity="0.9"/>
  <rect x="480" y="790" width="5" height="32"  fill="url(#spectrumGrad)" opacity="0.9"/>
  <rect x="486" y="798" width="5" height="24"  fill="url(#spectrumGrad)" opacity="0.9"/>
  <rect x="492" y="806" width="5" height="16"  fill="url(#spectrumGrad)" opacity="0.9"/>
  <rect x="498" y="812" width="5" height="10"  fill="url(#spectrumGrad)" opacity="0.9"/>
  <rect x="504" y="816" width="5" height="6"   fill="url(#spectrumGrad)" opacity="0.9"/>
  <rect x="510" y="818" width="5" height="4"   fill="url(#spectrumGrad)" opacity="0.7"/>
  <rect x="516" y="820" width="5" height="2"   fill="url(#spectrumGrad)" opacity="0.5"/>
  <!-- Peak hold dots -->
  <rect x="354" y="693" width="5" height="2" fill="#00e5ff" opacity="0.9"/>
  <rect x="360" y="690" width="5" height="2" fill="#00e5ff" opacity="0.9"/>
  <rect x="366" y="695" width="5" height="2" fill="#00e5ff" opacity="0.9"/>
  <rect x="372" y="700" width="5" height="2" fill="#00e5ff" opacity="0.9"/>

  <!-- ── Tile 3: Level Meters L/R (orange header) ── -->
  <text x="582" y="686" fill="#ff9100" font-size="11" font-weight="bold"
        font-family="'Segoe UI',Arial,sans-serif" letter-spacing="1">LEVELS</text>
  <rect x="578"  y="691" width="264" height="142" rx="4" fill="#0a0a0a"/>
  <!-- dB scale labels -->
  <text x="582" y="704"  fill="#3d3d3d" font-size="9" font-family="'Courier New',monospace">0</text>
  <text x="582" y="727"  fill="#3d3d3d" font-size="9" font-family="'Courier New',monospace">-6</text>
  <text x="575" y="750"  fill="#3d3d3d" font-size="9" font-family="'Courier New',monospace">-12</text>
  <text x="575" y="773"  fill="#3d3d3d" font-size="9" font-family="'Courier New',monospace">-18</text>
  <text x="575" y="796"  fill="#3d3d3d" font-size="9" font-family="'Courier New',monospace">-24</text>
  <text x="575" y="822"  fill="#3d3d3d" font-size="9" font-family="'Courier New',monospace">-∞</text>
  <!-- L channel meter -->
  <rect x="610" y="700" width="40" height="124" rx="2" fill="#111111" stroke="#2a2a2a"/>
  <rect x="610" y="710" width="40" height="114" rx="2" fill="url(#meterGrad)"/>
  <!-- Peak hold line for L -->
  <rect x="610" y="705" width="40" height="3" fill="#ff1744" opacity="0.9"/>
  <text x="630" y="838" fill="#808080" font-size="9" font-family="'Courier New',monospace"
        text-anchor="middle">L</text>
  <!-- R channel meter -->
  <rect x="662" y="700" width="40" height="124" rx="2" fill="#111111" stroke="#2a2a2a"/>
  <rect x="662" y="714" width="40" height="110" rx="2" fill="url(#meterGrad)"/>
  <!-- Peak hold line for R -->
  <rect x="662" y="707" width="40" height="3" fill="#ff1744" opacity="0.9"/>
  <text x="682" y="838" fill="#808080" font-size="9" font-family="'Courier New',monospace"
        text-anchor="middle">R</text>
  <!-- dB reading -->
  <text x="718" y="718" fill="#ff1744" font-size="11" font-weight="bold"
        font-family="'Courier New',monospace">-1.2 dBFS</text>
  <text x="718" y="736" fill="#ff9100" font-size="10"
        font-family="'Courier New',monospace">Peak: -0.8</text>
  <text x="718" y="754" fill="#00e676" font-size="10"
        font-family="'Courier New',monospace">RMS: -14.2</text>

  <!-- ── Tile 4: Loudness (purple header) ── -->
  <text x="864" y="686" fill="#e040fb" font-size="11" font-weight="bold"
        font-family="'Segoe UI',Arial,sans-serif" letter-spacing="1">LOUDNESS</text>
  <rect x="860"  y="691" width="264" height="142" rx="4" fill="#0a0a0a"/>
  <!-- LUFS arc gauge -->
  <!-- Background arc -->
  <path d="M994,790 m-80,0 a80,80 0 0 1 160,0" fill="none" stroke="#1e1e1e" stroke-width="16"/>
  <!-- Green segment (-23 to -16 LUFS target) -->
  <path d="M994,790 m-80,0 a80,80 0 0 1 80,-80" fill="none" stroke="#00e676" stroke-width="16" opacity="0.4"/>
  <!-- Current level arc (-14 LUFS integrated) -->
  <path d="M914,790 a80,80 0 0 1 68,-42" fill="none" stroke="#ff9100" stroke-width="16" stroke-linecap="round"/>
  <!-- Labels -->
  <text x="994" y="782" fill="#ff9100" font-size="22" font-weight="bold"
        font-family="'Courier New',monospace" text-anchor="middle">-14.2</text>
  <text x="994" y="800" fill="#808080" font-size="11"
        font-family="'Segoe UI',Arial,sans-serif" text-anchor="middle">LUFS  Integrated</text>
  <text x="874" y="798" fill="#3d3d3d" font-size="9" font-family="'Courier New',monospace">-30</text>
  <text x="1098" y="798" fill="#3d3d3d" font-size="9" font-family="'Courier New',monospace">0</text>
  <!-- Short-term and True Peak -->
  <text x="866" y="822" fill="#b0b0b0" font-size="10" font-family="'Courier New',monospace">S: -13.4</text>
  <text x="930" y="822" fill="#b0b0b0" font-size="10" font-family="'Courier New',monospace">M: -12.8</text>
  <text x="998" y="822" fill="#ff1744" font-size="10" font-family="'Courier New',monospace">TP: -0.8</text>
  <text x="1068" y="822" fill="#b0b0b0" font-size="10" font-family="'Courier New',monospace">LRA: 9.2</text>

  <!-- ── Tile 5: Stereo Correlation (red header) ── -->
  <text x="1146" y="686" fill="#ff1744" font-size="11" font-weight="bold"
        font-family="'Segoe UI',Arial,sans-serif" letter-spacing="1">CORRELATION</text>
  <rect x="1142" y="691" width="284" height="142" rx="4" fill="#0a0a0a"/>
  <!-- Correlation meter bar (horizontal) -->
  <!-- Scale: -1 (mono-negative) to +1 (mono-positive) -->
  <line x1="1150" y1="730" x2="1418" y2="730" stroke="#1e1e1e" stroke-width="1"/>
  <text x="1152" y="745" fill="#3d3d3d" font-size="9" font-family="'Courier New',monospace">-1</text>
  <text x="1278" y="745" fill="#3d3d3d" font-size="9" font-family="'Courier New',monospace">0</text>
  <text x="1406" y="745" fill="#3d3d3d" font-size="9" font-family="'Courier New',monospace">+1</text>
  <!-- Correlation bar track -->
  <rect x="1162" y="720" width="256" height="16" rx="3" fill="#111111" stroke="#2a2a2a"/>
  <!-- Correlation value fill (+0.72 = 72% of right half) -->
  <rect x="1290" y="720" width="92" height="16" rx="0" fill="#00e676" opacity="0.8"/>
  <!-- Center marker -->
  <line x1="1290" y1="718" x2="1290" y2="738" stroke="#808080" stroke-width="1.5"/>
  <!-- Value label -->
  <text x="1284" y="767" fill="#00e676" font-size="18" font-weight="bold"
        font-family="'Courier New',monospace" text-anchor="middle">+0.72</text>
  <text x="1284" y="784" fill="#808080" font-size="11"
        font-family="'Segoe UI',Arial,sans-serif" text-anchor="middle">Stereo Correlation</text>
  <!-- Lissajous ellipse (stereo field display) -->
  <ellipse cx="1284" cy="812" rx="22" ry="14" fill="none" stroke="#00e5ff" stroke-width="1.5"
           transform="rotate(-30,1284,812)" opacity="0.7"/>
  <line x1="1262" y1="812" x2="1306" y2="812" stroke="#2a2a2a" stroke-width="1"/>
  <line x1="1284" y1="795" x2="1284" y2="829" stroke="#2a2a2a" stroke-width="1"/>


  <!-- ═══════════════════════════════════════════════════════
       STATUS BAR  (y=851)
       ═══════════════════════════════════════════════════════ -->
  <line x1="0" y1="851" x2="1440" y2="851" stroke="#2a2a2a" stroke-width="1"/>
  <rect x="0" y="852" width="1440" height="48" fill="#0a0a0a"/>
  <!-- Project info -->
  <text x="16" y="880" fill="#7c4dff" font-size="11"
        font-family="'Segoe UI',Arial,sans-serif">Production Session  ·  96 kHz / 24-bit / 2ch</text>
  <!-- Auto-save indicator -->
  <text x="900" y="880" fill="#00c853" font-size="11" font-weight="bold"
        font-family="'Segoe UI',Arial,sans-serif" text-anchor="middle">Auto-save: ON</text>
  <!-- Vertical separator -->
  <line x1="1060" y1="856" x2="1060" y2="895" stroke="#2a2a2a" stroke-width="1"/>
  <!-- Status text -->
  <text x="1424" y="880" fill="#00e676" font-size="11"
        font-family="'Segoe UI',Arial,sans-serif" text-anchor="end">Playing  ·  02:14:07</text>

</svg>
